<svg xmlns="http://www.w3.org/2000/svg" viewBox="0 0 128 128">
  <defs>
    <linearGradient id="fl" x1="0" y1="1" x2="0" y2="0">
      <stop offset="0" stop-color="#ff6b6b"/>
      <stop offset="0.55" stop-color="#ff922b"/>
      <stop offset="1" stop-color="#ffd43b"/>
    </linearGradient>
  </defs>
  <rect width="128" height="128" rx="28" fill="#fff"/>
  <path
    d="M64 20c6 15-6 22-6 34 0 8 7 13 7 22 0 9-7 16-17 16-14 0-25-12-25-28 0-16 10-25 18-33 5 8 9 12 11 20 2-10 7-16 12-31z"
    fill="url(#fl)"
  />
  <path
    d="M78 46c11 8 21 18 21 36 0 18-14 32-33 32-17 0-29-9-29-25 0-11 7-18 13-24 0 10 6 16 14 16 9 0 14-7 14-15 0-7-4-12 0-20z"
    fill="#ff6b00"
    opacity="0.8"
  />
</svg>

