<svg xmlns="http://www.w3.org/2000/svg" viewBox="0 0 128 128">
  <defs>
    <linearGradient id="g" x1="0" y1="0" x2="1" y2="1">
      <stop offset="0" stop-color="#ff4d6d"/>
      <stop offset="1" stop-color="#c1121f"/>
    </linearGradient>
  </defs>
  <rect width="128" height="128" rx="28" fill="#fff"/>
  <path
    d="M64 105c-1.4 0-2.8-.5-3.9-1.5C39.5 85.2 26 73.2 26 56.7 26 45.2 34.7 36 46.5 36c6.4 0 12.4 3.2 16 8.2 3.6-5 9.6-8.2 16-8.2C90.3 36 99 45.2 99 56.7c0 16.5-13.5 28.5-34.1 46.8-1.1 1-2.5 1.5-3.9 1.5z"
    fill="url(#g)"
  />
  <path d="M38 53c1-8 7.3-13 14.4-12.2" fill="none" stroke="#fff" stroke-width="6" stroke-linecap="round" opacity="0.8"/>
</svg>

